<svg version="1.1" xmlns="http://www.w3.org/2000/svg" xmlns:xlink="http://www.w3.org/1999/xlink" width="770.21240234375" height="618"><defs/><g><g transform="translate(-22,-30) scale(1,1)"><rect fill="#C0C0C0" stroke="none" x="423" y="111" width="355.48681640625" height="85" opacity="0.2"/></g><g transform="translate(-22,-30) scale(1,1)"><rect fill="#ffffff" stroke="none" x="416" y="104" width="355.48681640625" height="85"/></g><g transform="translate(-22,-30) scale(1,1)"><path fill="none" stroke="#000000" d="M 416 104 L 771.48681640625 104 L 771.48681640625 189 L 416 189 L 416 104 Z Z" stroke-miterlimit="10"/></g><g transform="translate(-22,-30) scale(1,1)"><path fill="none" stroke="#000000" d="M 416 129 L 771.48681640625 129" stroke-miterlimit="10"/></g><g transform="translate(-22,-30) scale(1,1)"><path fill="none" stroke="#000000" d="M 416 152 L 771.48681640625 152" stroke-miterlimit="10"/></g><g transform="translate(-22,-30) scale(1,1)"><g><path fill="none" stroke="none"/><text fill="#000000" stroke="none" font-family="Arial" font-size="13px" font-style="normal" font-weight="bold" text-decoration="none" x="580.73388671875" y="123.5">Ship</text></g></g><g transform="translate(-22,-30) scale(1,1)"><g><path fill="none" stroke="none"/><text fill="#000000" stroke="none" font-family="Arial" font-size="13px" font-style="normal" font-weight="normal" text-decoration="none" x="421" y="146.5">-body_: std::vector&lt;Coordinates&gt;</text></g></g><g transform="translate(-22,-30) scale(1,1)"><g><path fill="none" stroke="none"/><text fill="#000000" stroke="none" font-family="Arial" font-size="13px" font-style="normal" font-weight="normal" text-decoration="none" x="421" y="169.5">+searchInBody(coord: Coordinates): bool</text></g></g><g transform="translate(-22,-30) scale(1,1)"><g><path fill="none" stroke="none"/><text fill="#000000" stroke="none" font-family="Arial" font-size="13px" font-style="normal" font-weight="normal" text-decoration="none" x="421" y="184.5">+drawBody()</text></g></g><g transform="translate(-22,-30) scale(1,1)"><rect fill="#C0C0C0" stroke="none" x="103" y="47" width="145.18896484375" height="130" opacity="0.2"/></g><g transform="translate(-22,-30) scale(1,1)"><rect fill="#ffffff" stroke="none" x="96" y="40" width="145.18896484375" height="130"/></g><g transform="translate(-22,-30) scale(1,1)"><path fill="none" stroke="#000000" d="M 96 40 L 241.18896484375 40 L 241.18896484375 170 L 96 170 L 96 40 Z Z" stroke-miterlimit="10"/></g><g transform="translate(-22,-30) scale(1,1)"><path fill="none" stroke="#000000" d="M 96 65 L 241.18896484375 65" stroke-miterlimit="10"/></g><g transform="translate(-22,-30) scale(1,1)"><path fill="none" stroke="#000000" d="M 96 103 L 241.18896484375 103" stroke-miterlimit="10"/></g><g transform="translate(-22,-30) scale(1,1)"><g><path fill="none" stroke="none"/><text fill="#000000" stroke="none" font-family="Arial" font-size="13px" font-style="normal" font-weight="bold" text-decoration="none" x="133.5458984375" y="59.5">Coordinates</text></g></g><g transform="translate(-22,-30) scale(1,1)"><g><path fill="none" stroke="none"/><text fill="#000000" stroke="none" font-family="Arial" font-size="13px" font-style="normal" font-weight="normal" text-decoration="none" x="101" y="82.5">-x_: int</text></g></g><g transform="translate(-22,-30) scale(1,1)"><g><path fill="none" stroke="none"/><text fill="#000000" stroke="none" font-family="Arial" font-size="13px" font-style="normal" font-weight="normal" text-decoration="none" x="101" y="97.5">-y_: int</text></g></g><g transform="translate(-22,-30) scale(1,1)"><g><path fill="none" stroke="none"/><text fill="#000000" stroke="none" font-family="Arial" font-size="13px" font-style="normal" font-weight="normal" text-decoration="none" x="101" y="120.5">+setX(x: int)</text></g></g><g transform="translate(-22,-30) scale(1,1)"><g><path fill="none" stroke="none"/><text fill="#000000" stroke="none" font-family="Arial" font-size="13px" font-style="normal" font-weight="normal" text-decoration="none" x="101" y="135.5">+setY(y: int)</text></g></g><g transform="translate(-22,-30) scale(1,1)"><g><path fill="none" stroke="none"/><text fill="#000000" stroke="none" font-family="Arial" font-size="13px" font-style="normal" font-weight="normal" text-decoration="none" x="101" y="150.5">+getX(): int</text></g></g><g transform="translate(-22,-30) scale(1,1)"><g><path fill="none" stroke="none"/><text fill="#000000" stroke="none" font-family="Arial" font-size="13px" font-style="normal" font-weight="normal" text-decoration="none" x="101" y="165.5">+getY(): int</text></g></g><g transform="translate(-22,-30) scale(1,1)"><rect fill="#C0C0C0" stroke="none" x="95" y="207" width="287.5732421875" height="250" opacity="0.2"/></g><g transform="translate(-22,-30) scale(1,1)"><rect fill="#ffffff" stroke="none" x="88" y="200" width="287.5732421875" height="250"/></g><g transform="translate(-22,-30) scale(1,1)"><path fill="none" stroke="#000000" d="M 88 200 L 375.5732421875 200 L 375.5732421875 450 L 88 450 L 88 200 Z Z" stroke-miterlimit="10"/></g><g transform="translate(-22,-30) scale(1,1)"><path fill="none" stroke="#000000" d="M 88 225 L 375.5732421875 225" stroke-miterlimit="10"/></g><g transform="translate(-22,-30) scale(1,1)"><path fill="none" stroke="#000000" d="M 88 323 L 375.5732421875 323" stroke-miterlimit="10"/></g><g transform="translate(-22,-30) scale(1,1)"><g><path fill="none" stroke="none"/><text fill="#000000" stroke="none" font-family="Arial" font-size="13px" font-style="normal" font-weight="bold" text-decoration="none" x="213.362548828125" y="219.5">Player</text></g></g><g transform="translate(-22,-30) scale(1,1)"><g><path fill="none" stroke="none"/><text fill="#000000" stroke="none" font-family="Arial" font-size="13px" font-style="normal" font-weight="normal" text-decoration="none" x="93" y="242.5">-isWin_: bool</text></g></g><g transform="translate(-22,-30) scale(1,1)"><g><path fill="none" stroke="none"/><text fill="#000000" stroke="none" font-family="Arial" font-size="13px" font-style="normal" font-weight="normal" text-decoration="none" x="93" y="257.5">-ships_: std::vector&lt;Ship&gt;</text></g></g><g transform="translate(-22,-30) scale(1,1)"><g><path fill="none" stroke="none"/><text fill="#000000" stroke="none" font-family="Arial" font-size="13px" font-style="normal" font-weight="normal" text-decoration="none" x="93" y="272.5">-nMyKilledShips_: int</text></g></g><g transform="translate(-22,-30) scale(1,1)"><g><path fill="none" stroke="none"/><text fill="#000000" stroke="none" font-family="Arial" font-size="13px" font-style="normal" font-weight="normal" text-decoration="none" x="93" y="287.5">-nEnemyKilledShip_: int</text></g></g><g transform="translate(-22,-30) scale(1,1)"><g><path fill="none" stroke="none"/><text fill="#000000" stroke="none" font-family="Arial" font-size="13px" font-style="normal" font-weight="normal" text-decoration="none" x="93" y="302.5">-repeatStep_: bool</text></g></g><g transform="translate(-22,-30) scale(1,1)"><g><path fill="none" stroke="none"/><text fill="#000000" stroke="none" font-family="Arial" font-size="13px" font-style="normal" font-weight="normal" text-decoration="none" x="93" y="317.5">-stepResult_: StepResult</text></g></g><g transform="translate(-22,-30) scale(1,1)"><g><path fill="none" stroke="none"/><text fill="#000000" stroke="none" font-family="Arial" font-size="13px" font-style="normal" font-weight="normal" text-decoration="none" x="93" y="340.5">#checkStep(coord: Coordinates): StepResult</text></g></g><g transform="translate(-22,-30) scale(1,1)"><g><path fill="none" stroke="none"/><text fill="#000000" stroke="none" font-family="Arial" font-size="13px" font-style="normal" font-weight="normal" text-decoration="none" x="93" y="355.5">#setStepResult(stepResult: StepResult)</text></g></g><g transform="translate(-22,-30) scale(1,1)"><g><path fill="none" stroke="none"/><text fill="#000000" stroke="none" font-family="Arial" font-size="13px" font-style="normal" font-weight="normal" text-decoration="none" x="93" y="370.5">+initializeVectorShip()</text></g></g><g transform="translate(-22,-30) scale(1,1)"><g><path fill="none" stroke="none"/><text fill="#000000" stroke="none" font-family="Arial" font-size="13px" font-style="normal" font-weight="normal" text-decoration="none" x="93" y="385.5">+makeStep(coord: Coordinates)</text></g></g><g transform="translate(-22,-30) scale(1,1)"><g><path fill="none" stroke="none"/><text fill="#000000" stroke="none" font-family="Arial" font-size="13px" font-style="normal" font-weight="normal" text-decoration="none" x="93" y="400.5">+drawStep(coord: Coordinates)</text></g></g><g transform="translate(-22,-30) scale(1,1)"><g><path fill="none" stroke="none"/><text fill="#000000" stroke="none" font-family="Arial" font-size="13px" font-style="normal" font-weight="normal" text-decoration="none" x="93" y="415.5">+canWin(): bool</text></g></g><g transform="translate(-22,-30) scale(1,1)"><g><path fill="none" stroke="none"/><text fill="#000000" stroke="none" font-family="Arial" font-size="13px" font-style="normal" font-weight="normal" text-decoration="none" x="93" y="430.5">+showStatistic()</text></g></g><g transform="translate(-22,-30) scale(1,1)"><rect fill="#C0C0C0" stroke="none" x="39" y="479" width="56" height="44" opacity="0.2"/></g><g transform="translate(-22,-30) scale(1,1)"><rect fill="#ffffff" stroke="none" x="32" y="472" width="56" height="44"/></g><g transform="translate(-22,-30) scale(1,1)"><path fill="none" stroke="#000000" d="M 32 472 L 88 472 L 88 516 L 32 516 L 32 472 Z Z" stroke-miterlimit="10"/></g><g transform="translate(-22,-30) scale(1,1)"><path fill="none" stroke="#000000" d="M 32 497 L 88 497" stroke-miterlimit="10"/></g><g transform="translate(-22,-30) scale(1,1)"><path fill="none" stroke="#000000" d="M 32 507 L 88 507" stroke-miterlimit="10"/></g><g transform="translate(-22,-30) scale(1,1)"><g><path fill="none" stroke="none"/><text fill="#000000" stroke="none" font-family="Arial" font-size="13px" font-style="normal" font-weight="bold" text-decoration="none" x="46.2763671875" y="491.5">User</text></g></g><g transform="translate(-22,-30) scale(1,1)"><rect fill="#C0C0C0" stroke="none" x="279" y="487" width="70.38818359375" height="44" opacity="0.2"/></g><g transform="translate(-22,-30) scale(1,1)"><rect fill="#ffffff" stroke="none" x="272" y="480" width="70.38818359375" height="44"/></g><g transform="translate(-22,-30) scale(1,1)"><path fill="none" stroke="#000000" d="M 272 480 L 342.38818359375 480 L 342.38818359375 524 L 272 524 L 272 480 Z Z" stroke-miterlimit="10"/></g><g transform="translate(-22,-30) scale(1,1)"><path fill="none" stroke="#000000" d="M 272 505 L 342.38818359375 505" stroke-miterlimit="10"/></g><g transform="translate(-22,-30) scale(1,1)"><path fill="none" stroke="#000000" d="M 272 515 L 342.38818359375 515" stroke-miterlimit="10"/></g><g transform="translate(-22,-30) scale(1,1)"><g><path fill="none" stroke="none"/><text fill="#000000" stroke="none" font-family="Arial" font-size="13px" font-style="normal" font-weight="bold" text-decoration="none" x="278.655029296875" y="499.5">Computer</text></g></g><g transform="translate(-22,-30) scale(1,1)"><path fill="none" stroke="#000000" d="M 83 471 L 104 451" stroke-miterlimit="10"/></g><g transform="translate(-22,-30) scale(1,1)"><path fill="#FFFFFF" stroke="none" d="M 95.08787469725604 471.1140255192289 L 104 451 L 83.47541192203951 458.92093960525153"/></g><g transform="translate(-22,-30) scale(1,1)"><path fill="none" stroke="#000000" d="M 95.08787469725604 471.1140255192289 L 104 451 L 83.47541192203951 458.92093960525153 L 95.08787469725604 471.1140255192289" stroke-miterlimit="10"/></g><g transform="translate(-22,-30) scale(1,1)"><path fill="none" stroke="#000000" d="M 297 479 L 285 451" stroke-miterlimit="10"/></g><g transform="translate(-22,-30) scale(1,1)"><path fill="#FFFFFF" stroke="none" d="M 300.7448621516366 466.3655236105367 L 285 451 L 285.2682328547772 472.9983647377622"/></g><g transform="translate(-22,-30) scale(1,1)"><path fill="none" stroke="#000000" d="M 300.7448621516366 466.3655236105367 L 285 451 L 285.2682328547772 472.9983647377622 L 300.7448621516366 466.3655236105367" stroke-miterlimit="10"/></g><g transform="translate(-22,-30) scale(1,1)"><rect fill="#C0C0C0" stroke="none" x="279" y="63" width="89.57080078125" height="72" opacity="0.2"/></g><g transform="translate(-22,-30) scale(1,1)"><rect fill="#ffffff" stroke="none" x="272" y="56" width="89.57080078125" height="72"/></g><g transform="translate(-22,-30) scale(1,1)"><path fill="none" stroke="#000000" d="M 272 56 L 361.57080078125 56 L 361.57080078125 128 L 272 128 L 272 56 Z Z" stroke-miterlimit="10"/></g><g transform="translate(-22,-30) scale(1,1)"><path fill="none" stroke="#000000" d="M 272 81 L 361.57080078125 81" stroke-miterlimit="10"/></g><g transform="translate(-22,-30) scale(1,1)"><path fill="none" stroke="#000000" d="M 272 91 L 361.57080078125 91" stroke-miterlimit="10"/></g><g transform="translate(-22,-30) scale(1,1)"><g><path fill="none" stroke="none"/><text fill="#000000" stroke="none" font-family="Arial" font-size="13px" font-style="normal" font-weight="bold" text-decoration="none" x="300.1767578125" y="75.5">Timer</text></g></g><g transform="translate(-22,-30) scale(1,1)"><g><path fill="none" stroke="none"/><text fill="#000000" stroke="none" font-family="Arial" font-size="13px" font-style="normal" font-weight="normal" text-decoration="none" x="277" y="108.5">+set()</text></g></g><g transform="translate(-22,-30) scale(1,1)"><g><path fill="none" stroke="none"/><text fill="#000000" stroke="none" font-family="Arial" font-size="13px" font-style="normal" font-weight="normal" text-decoration="none" x="277" y="123.5">+kill()</text></g></g><g transform="translate(-22,-30) scale(1,1)"><rect fill="#C0C0C0" stroke="none" x="463" y="431" width="186.39794921875" height="57" opacity="0.2"/></g><g transform="translate(-22,-30) scale(1,1)"><rect fill="#ffffff" stroke="none" x="456" y="424" width="186.39794921875" height="57"/></g><g transform="translate(-22,-30) scale(1,1)"><path fill="none" stroke="#000000" d="M 456 424 L 642.39794921875 424 L 642.39794921875 481 L 456 481 L 456 424 Z Z" stroke-miterlimit="10"/></g><g transform="translate(-22,-30) scale(1,1)"><path fill="none" stroke="#000000" d="M 456 449 L 642.39794921875 449" stroke-miterlimit="10"/></g><g transform="translate(-22,-30) scale(1,1)"><path fill="none" stroke="#000000" d="M 456 459 L 642.39794921875 459" stroke-miterlimit="10"/></g><g transform="translate(-22,-30) scale(1,1)"><g><path fill="none" stroke="none"/><text fill="#000000" stroke="none" font-family="Arial" font-size="13px" font-style="italic" font-weight="bold" text-decoration="none" x="517.403564453125" y="443.5">StepResult</text></g></g><g transform="translate(-22,-30) scale(1,1)"><g><path fill="none" stroke="none"/><text fill="#000000" stroke="none" font-family="Arial" font-size="13px" font-style="italic" font-weight="normal" text-decoration="none" x="461" y="476.5">+draw(inputData: Coordinates)</text></g></g><g transform="translate(-22,-30) scale(1,1)"><rect fill="#C0C0C0" stroke="none" x="631" y="535" width="50.919921875" height="44" opacity="0.2"/></g><g transform="translate(-22,-30) scale(1,1)"><rect fill="#ffffff" stroke="none" x="624" y="528" width="50.919921875" height="44"/></g><g transform="translate(-22,-30) scale(1,1)"><path fill="none" stroke="#000000" d="M 624 528 L 674.919921875 528 L 674.919921875 572 L 624 572 L 624 528 Z Z" stroke-miterlimit="10"/></g><g transform="translate(-22,-30) scale(1,1)"><path fill="none" stroke="#000000" d="M 624 553 L 674.919921875 553" stroke-miterlimit="10"/></g><g transform="translate(-22,-30) scale(1,1)"><path fill="none" stroke="#000000" d="M 624 563 L 674.919921875 563" stroke-miterlimit="10"/></g><g transform="translate(-22,-30) scale(1,1)"><g><path fill="none" stroke="none"/><text fill="#000000" stroke="none" font-family="Arial" font-size="13px" font-style="normal" font-weight="bold" text-decoration="none" x="632.114990234375" y="547.5">Boner</text></g></g><g transform="translate(-22,-30) scale(1,1)"><rect fill="#C0C0C0" stroke="none" x="519" y="575" width="74.919921875" height="44" opacity="0.2"/></g><g transform="translate(-22,-30) scale(1,1)"><rect fill="#ffffff" stroke="none" x="512" y="568" width="74.919921875" height="44"/></g><g transform="translate(-22,-30) scale(1,1)"><path fill="none" stroke="#000000" d="M 512 568 L 586.919921875 568 L 586.919921875 612 L 512 612 L 512 568 Z Z" stroke-miterlimit="10"/></g><g transform="translate(-22,-30) scale(1,1)"><path fill="none" stroke="#000000" d="M 512 593 L 586.919921875 593" stroke-miterlimit="10"/></g><g transform="translate(-22,-30) scale(1,1)"><path fill="none" stroke="#000000" d="M 512 603 L 586.919921875 603" stroke-miterlimit="10"/></g><g transform="translate(-22,-30) scale(1,1)"><g><path fill="none" stroke="none"/><text fill="#000000" stroke="none" font-family="Arial" font-size="13px" font-style="normal" font-weight="bold" text-decoration="none" x="533.200439453125" y="587.5">Injure</text></g></g><g transform="translate(-22,-30) scale(1,1)"><rect fill="#C0C0C0" stroke="none" x="423" y="551" width="50.919921875" height="44" opacity="0.2"/></g><g transform="translate(-22,-30) scale(1,1)"><rect fill="#ffffff" stroke="none" x="416" y="544" width="50.919921875" height="44"/></g><g transform="translate(-22,-30) scale(1,1)"><path fill="none" stroke="#000000" d="M 416 544 L 466.919921875 544 L 466.919921875 588 L 416 588 L 416 544 Z Z" stroke-miterlimit="10"/></g><g transform="translate(-22,-30) scale(1,1)"><path fill="none" stroke="#000000" d="M 416 569 L 466.919921875 569" stroke-miterlimit="10"/></g><g transform="translate(-22,-30) scale(1,1)"><path fill="none" stroke="#000000" d="M 416 579 L 466.919921875 579" stroke-miterlimit="10"/></g><g transform="translate(-22,-30) scale(1,1)"><g><path fill="none" stroke="none"/><text fill="#000000" stroke="none" font-family="Arial" font-size="13px" font-style="normal" font-weight="bold" text-decoration="none" x="432.792236328125" y="563.5">Kill</text></g></g><g transform="translate(-22,-30) scale(1,1)"><path fill="none" stroke="#000000" d="M 626 527 L 580 482" stroke-miterlimit="10"/></g><g transform="translate(-22,-30) scale(1,1)"><path fill="#FFFFFF" stroke="none" d="M 600.4166338865824 490.1951852170194 L 580 482 L 588.6418692301713 502.23161131023966"/></g><g transform="translate(-22,-30) scale(1,1)"><path fill="none" stroke="#000000" d="M 600.4166338865824 490.1951852170194 L 580 482 L 588.6418692301713 502.23161131023966 L 600.4166338865824 490.1951852170194" stroke-miterlimit="10"/></g><g transform="translate(-22,-30) scale(1,1)"><path fill="none" stroke="#000000" d="M 549 567 L 549 482" stroke-miterlimit="10"/></g><g transform="translate(-22,-30) scale(1,1)"><path fill="#FFFFFF" stroke="none" d="M 557.419035512032 502.3253497152483 L 549 482 L 540.580964487968 502.3253497152483"/></g><g transform="translate(-22,-30) scale(1,1)"><path fill="none" stroke="#000000" d="M 557.419035512032 502.3253497152483 L 549 482 L 540.580964487968 502.3253497152483 L 557.419035512032 502.3253497152483" stroke-miterlimit="10"/></g><g transform="translate(-22,-30) scale(1,1)"><path fill="none" stroke="#000000" d="M 463 543 L 521 482" stroke-miterlimit="10"/></g><g transform="translate(-22,-30) scale(1,1)"><path fill="#FFFFFF" stroke="none" d="M 513.0958795886395 502.53107110023035 L 521 482 L 500.89328325781594 490.928602457808"/></g><g transform="translate(-22,-30) scale(1,1)"><path fill="none" stroke="#000000" d="M 513.0958795886395 502.53107110023035 L 521 482 L 500.89328325781594 490.928602457808 L 513.0958795886395 502.53107110023035" stroke-miterlimit="10"/></g><g transform="translate(-22,-30) scale(1,1)"><path fill="none" stroke="#000000" d="M 504 190 L 377 253" stroke-miterlimit="10"/></g><g transform="translate(-22,-30) scale(1,1)"><path fill="#000000" stroke="none" d="M 384.23339765461054 244.71278343650445 L 377 253 L 387.97473156180314 252.2548375033848 L 396.7083370457622 243.2234233552518"/></g><g transform="translate(-22,-30) scale(1,1)"><path fill="none" stroke="#000000" d="M 384.23339765461054 244.71278343650445 L 377 253 L 387.97473156180314 252.2548375033848 L 396.7083370457622 243.2234233552518 L 384.23339765461054 244.71278343650445" stroke-miterlimit="10"/></g><g transform="translate(-22,-30) scale(1,1)"><path fill="none" stroke="#000000" d="M 476 423 L 377 383" stroke-miterlimit="10"/></g><g transform="translate(-22,-30) scale(1,1)"><path fill="#000000" stroke="none" d="M 387.99958232288753 382.9041421780988 L 377 383 L 384.84566096662957 390.71009753483736 L 397.3979443491859 391.24159367643875"/></g><g transform="translate(-22,-30) scale(1,1)"><path fill="none" stroke="#000000" d="M 387.99958232288753 382.9041421780988 L 377 383 L 384.84566096662957 390.71009753483736 L 397.3979443491859 391.24159367643875 L 387.99958232288753 382.9041421780988" stroke-miterlimit="10"/></g><g transform="translate(-22,-30) scale(1,1)"><rect fill="#C0C0C0" stroke="none" x="135" y="543" width="127.83447265625" height="102" opacity="0.2"/></g><g transform="translate(-22,-30) scale(1,1)"><rect fill="#ffffff" stroke="none" x="128" y="536" width="127.83447265625" height="102"/></g><g transform="translate(-22,-30) scale(1,1)"><path fill="none" stroke="#000000" d="M 128 536 L 255.83447265625 536 L 255.83447265625 638 L 128 638 L 128 536 Z Z" stroke-miterlimit="10"/></g><g transform="translate(-22,-30) scale(1,1)"><path fill="none" stroke="#000000" d="M 128 561 L 255.83447265625 561" stroke-miterlimit="10"/></g><g transform="translate(-22,-30) scale(1,1)"><path fill="none" stroke="#000000" d="M 128 571 L 255.83447265625 571" stroke-miterlimit="10"/></g><g transform="translate(-22,-30) scale(1,1)"><g><path fill="none" stroke="none"/><text fill="#000000" stroke="none" font-family="Arial" font-size="13px" font-style="normal" font-weight="bold" text-decoration="none" x="148.562744140625" y="555.5">ManagerGame</text></g></g><g transform="translate(-22,-30) scale(1,1)"><g><path fill="none" stroke="none"/><text fill="#000000" stroke="none" font-family="Arial" font-size="13px" font-style="normal" font-weight="normal" text-decoration="none" x="133" y="588.5">+pause()</text></g></g><g transform="translate(-22,-30) scale(1,1)"><g><path fill="none" stroke="none"/><text fill="#000000" stroke="none" font-family="Arial" font-size="13px" font-style="normal" font-weight="normal" text-decoration="none" x="133" y="603.5">+exit()</text></g></g><g transform="translate(-22,-30) scale(1,1)"><g><path fill="none" stroke="none"/><text fill="#000000" stroke="none" font-family="Arial" font-size="13px" font-style="normal" font-weight="normal" text-decoration="none" x="133" y="618.5">+reset()</text></g></g><g transform="translate(-22,-30) scale(1,1)"><g><path fill="none" stroke="none"/><text fill="#000000" stroke="none" font-family="Arial" font-size="13px" font-style="normal" font-weight="normal" text-decoration="none" x="133" y="633.5">+showWaitingTime()</text></g></g><g transform="translate(-22,-30) scale(1,1)"><path fill="none" stroke="#000000" d="M 89 515 L 127 542" stroke-miterlimit="10"/></g><g transform="translate(-22,-30) scale(1,1)"><path fill="#FFFFFF" stroke="none" d="M 105.55480770624607 537.090445286595 L 127 542 L 115.3075385356921 523.3643796747821"/></g><g transform="translate(-22,-30) scale(1,1)"><path fill="none" stroke="#000000" d="M 105.55480770624607 537.090445286595 L 127 542 L 115.3075385356921 523.3643796747821 L 105.55480770624607 537.090445286595" stroke-miterlimit="10"/></g><g transform="translate(-22,-30) scale(1,1)"><rect fill="#C0C0C0" stroke="none" x="519" y="271" width="270.21240234375" height="57" opacity="0.2"/></g><g transform="translate(-22,-30) scale(1,1)"><rect fill="#ffffff" stroke="none" x="512" y="264" width="270.21240234375" height="57"/></g><g transform="translate(-22,-30) scale(1,1)"><path fill="none" stroke="#000000" d="M 512 264 L 782.21240234375 264 L 782.21240234375 321 L 512 321 L 512 264 Z Z" stroke-miterlimit="10"/></g><g transform="translate(-22,-30) scale(1,1)"><path fill="none" stroke="#000000" d="M 512 289 L 782.21240234375 289" stroke-miterlimit="10"/></g><g transform="translate(-22,-30) scale(1,1)"><path fill="none" stroke="#000000" d="M 512 299 L 782.21240234375 299" stroke-miterlimit="10"/></g><g transform="translate(-22,-30) scale(1,1)"><g><path fill="none" stroke="none"/><text fill="#000000" stroke="none" font-family="Arial" font-size="13px" font-style="normal" font-weight="bold" text-decoration="none" x="609.16943359375" y="283.5">ConsoleView</text></g></g><g transform="translate(-22,-30) scale(1,1)"><g><path fill="none" stroke="none"/><text fill="#000000" stroke="none" font-family="Arial" font-size="13px" font-style="normal" font-weight="normal" text-decoration="none" x="517" y="316.5">+print(coordinates: Coordinates, state: string)</text></g></g><g transform="translate(-22,-30) scale(1,1)"><path fill="none" stroke="#000000" d="M 636 263 L 609 190" stroke-miterlimit="10"/></g><g transform="translate(-22,-30) scale(1,1)"><path fill="#FFFFFF" stroke="none" d="M 616.4735120036363 198.0713455093624 L 609 190 L 608.5772678740806 200.99187416002002 L 616.6317091456192 210.63388028260007"/></g><g transform="translate(-22,-30) scale(1,1)"><path fill="none" stroke="#000000" d="M 616.4735120036363 198.0713455093624 L 609 190 L 608.5772678740806 200.99187416002002 L 616.6317091456192 210.63388028260007 L 616.4735120036363 198.0713455093624" stroke-miterlimit="10"/></g><g transform="translate(-22,-30) scale(1,1)"><path fill="none" stroke="#000000" d="M 629 322 L 567 423" stroke-miterlimit="10"/></g><g transform="translate(-22,-30) scale(1,1)"><path fill="#FFFFFF" stroke="none" d="M 568.7291517704639 412.1367576592114 L 567 423 L 575.9041672674401 416.5412226177513 L 578.509421589848 404.25078095847346"/></g><g transform="translate(-22,-30) scale(1,1)"><path fill="none" stroke="#000000" d="M 568.7291517704639 412.1367576592114 L 567 423 L 575.9041672674401 416.5412226177513 L 578.509421589848 404.25078095847346 L 568.7291517704639 412.1367576592114" stroke-miterlimit="10"/></g></g></svg>