<svg version="1.1" xmlns="http://www.w3.org/2000/svg" xmlns:xlink="http://www.w3.org/1999/xlink" width="962.21240234375" height="748"><defs/><g><g transform="translate(-22,-38) scale(1,1)"><rect fill="#C0C0C0" stroke="none" x="471" y="159" width="355.48681640625" height="85" opacity="0.2"/></g><g transform="translate(-22,-38) scale(1,1)"><rect fill="#ffffff" stroke="none" x="464" y="152" width="355.48681640625" height="85"/></g><g transform="translate(-22,-38) scale(1,1)"><path fill="none" stroke="#000000" d="M 464 152 L 819.48681640625 152 L 819.48681640625 237 L 464 237 L 464 152 Z Z" stroke-miterlimit="10"/></g><g transform="translate(-22,-38) scale(1,1)"><path fill="none" stroke="#000000" d="M 464 177 L 819.48681640625 177" stroke-miterlimit="10"/></g><g transform="translate(-22,-38) scale(1,1)"><path fill="none" stroke="#000000" d="M 464 200 L 819.48681640625 200" stroke-miterlimit="10"/></g><g transform="translate(-22,-38) scale(1,1)"><g><path fill="none" stroke="none"/><text fill="#000000" stroke="none" font-family="Arial" font-size="13px" font-style="normal" font-weight="bold" text-decoration="none" x="628.73388671875" y="171.5">Ship</text></g></g><g transform="translate(-22,-38) scale(1,1)"><g><path fill="none" stroke="none"/><text fill="#000000" stroke="none" font-family="Arial" font-size="13px" font-style="normal" font-weight="normal" text-decoration="none" x="469" y="194.5">-body_: std::vector&lt;Coordinates&gt;</text></g></g><g transform="translate(-22,-38) scale(1,1)"><g><path fill="none" stroke="none"/><text fill="#000000" stroke="none" font-family="Arial" font-size="13px" font-style="normal" font-weight="normal" text-decoration="none" x="469" y="217.5">+searchInBody(coord: Coordinates): bool</text></g></g><g transform="translate(-22,-38) scale(1,1)"><g><path fill="none" stroke="none"/><text fill="#000000" stroke="none" font-family="Arial" font-size="13px" font-style="normal" font-weight="normal" text-decoration="none" x="469" y="232.5">+drawBody()</text></g></g><g transform="translate(-22,-38) scale(1,1)"><rect fill="#C0C0C0" stroke="none" x="623" y="375" width="145.18896484375" height="130" opacity="0.2"/></g><g transform="translate(-22,-38) scale(1,1)"><rect fill="#ffffff" stroke="none" x="616" y="368" width="145.18896484375" height="130"/></g><g transform="translate(-22,-38) scale(1,1)"><path fill="none" stroke="#000000" d="M 616 368 L 761.18896484375 368 L 761.18896484375 498 L 616 498 L 616 368 Z Z" stroke-miterlimit="10"/></g><g transform="translate(-22,-38) scale(1,1)"><path fill="none" stroke="#000000" d="M 616 393 L 761.18896484375 393" stroke-miterlimit="10"/></g><g transform="translate(-22,-38) scale(1,1)"><path fill="none" stroke="#000000" d="M 616 431 L 761.18896484375 431" stroke-miterlimit="10"/></g><g transform="translate(-22,-38) scale(1,1)"><g><path fill="none" stroke="none"/><text fill="#000000" stroke="none" font-family="Arial" font-size="13px" font-style="normal" font-weight="bold" text-decoration="none" x="653.5458984375" y="387.5">Coordinates</text></g></g><g transform="translate(-22,-38) scale(1,1)"><g><path fill="none" stroke="none"/><text fill="#000000" stroke="none" font-family="Arial" font-size="13px" font-style="normal" font-weight="normal" text-decoration="none" x="621" y="410.5">-x_: int</text></g></g><g transform="translate(-22,-38) scale(1,1)"><g><path fill="none" stroke="none"/><text fill="#000000" stroke="none" font-family="Arial" font-size="13px" font-style="normal" font-weight="normal" text-decoration="none" x="621" y="425.5">-y_: int</text></g></g><g transform="translate(-22,-38) scale(1,1)"><g><path fill="none" stroke="none"/><text fill="#000000" stroke="none" font-family="Arial" font-size="13px" font-style="normal" font-weight="normal" text-decoration="none" x="621" y="448.5">+setX(x: int)</text></g></g><g transform="translate(-22,-38) scale(1,1)"><g><path fill="none" stroke="none"/><text fill="#000000" stroke="none" font-family="Arial" font-size="13px" font-style="normal" font-weight="normal" text-decoration="none" x="621" y="463.5">+setY(y: int)</text></g></g><g transform="translate(-22,-38) scale(1,1)"><g><path fill="none" stroke="none"/><text fill="#000000" stroke="none" font-family="Arial" font-size="13px" font-style="normal" font-weight="normal" text-decoration="none" x="621" y="478.5">+getX(): int</text></g></g><g transform="translate(-22,-38) scale(1,1)"><g><path fill="none" stroke="none"/><text fill="#000000" stroke="none" font-family="Arial" font-size="13px" font-style="normal" font-weight="normal" text-decoration="none" x="621" y="493.5">+getY(): int</text></g></g><g transform="translate(-22,-38) scale(1,1)"><rect fill="#C0C0C0" stroke="none" x="223" y="295" width="287.5732421875" height="250" opacity="0.2"/></g><g transform="translate(-22,-38) scale(1,1)"><rect fill="#ffffff" stroke="none" x="216" y="288" width="287.5732421875" height="250"/></g><g transform="translate(-22,-38) scale(1,1)"><path fill="none" stroke="#000000" d="M 216 288 L 503.5732421875 288 L 503.5732421875 538 L 216 538 L 216 288 Z Z" stroke-miterlimit="10"/></g><g transform="translate(-22,-38) scale(1,1)"><path fill="none" stroke="#000000" d="M 216 313 L 503.5732421875 313" stroke-miterlimit="10"/></g><g transform="translate(-22,-38) scale(1,1)"><path fill="none" stroke="#000000" d="M 216 411 L 503.5732421875 411" stroke-miterlimit="10"/></g><g transform="translate(-22,-38) scale(1,1)"><g><path fill="none" stroke="none"/><text fill="#000000" stroke="none" font-family="Arial" font-size="13px" font-style="normal" font-weight="bold" text-decoration="none" x="341.362548828125" y="307.5">Player</text></g></g><g transform="translate(-22,-38) scale(1,1)"><g><path fill="none" stroke="none"/><text fill="#000000" stroke="none" font-family="Arial" font-size="13px" font-style="normal" font-weight="normal" text-decoration="none" x="221" y="330.5">-isWin_: bool</text></g></g><g transform="translate(-22,-38) scale(1,1)"><g><path fill="none" stroke="none"/><text fill="#000000" stroke="none" font-family="Arial" font-size="13px" font-style="normal" font-weight="normal" text-decoration="none" x="221" y="345.5">-ships_: std::vector&lt;Ship&gt;</text></g></g><g transform="translate(-22,-38) scale(1,1)"><g><path fill="none" stroke="none"/><text fill="#000000" stroke="none" font-family="Arial" font-size="13px" font-style="normal" font-weight="normal" text-decoration="none" x="221" y="360.5">-nMyKilledShips_: int</text></g></g><g transform="translate(-22,-38) scale(1,1)"><g><path fill="none" stroke="none"/><text fill="#000000" stroke="none" font-family="Arial" font-size="13px" font-style="normal" font-weight="normal" text-decoration="none" x="221" y="375.5">-nEnemyKilledShip_: int</text></g></g><g transform="translate(-22,-38) scale(1,1)"><g><path fill="none" stroke="none"/><text fill="#000000" stroke="none" font-family="Arial" font-size="13px" font-style="normal" font-weight="normal" text-decoration="none" x="221" y="390.5">-repeatStep_: bool</text></g></g><g transform="translate(-22,-38) scale(1,1)"><g><path fill="none" stroke="none"/><text fill="#000000" stroke="none" font-family="Arial" font-size="13px" font-style="normal" font-weight="normal" text-decoration="none" x="221" y="405.5">-stepResult_: StepResult</text></g></g><g transform="translate(-22,-38) scale(1,1)"><g><path fill="none" stroke="none"/><text fill="#000000" stroke="none" font-family="Arial" font-size="13px" font-style="normal" font-weight="normal" text-decoration="none" x="221" y="428.5">#checkStep(coord: Coordinates): StepResult</text></g></g><g transform="translate(-22,-38) scale(1,1)"><g><path fill="none" stroke="none"/><text fill="#000000" stroke="none" font-family="Arial" font-size="13px" font-style="normal" font-weight="normal" text-decoration="none" x="221" y="443.5">#setStepResult(stepResult: StepResult)</text></g></g><g transform="translate(-22,-38) scale(1,1)"><g><path fill="none" stroke="none"/><text fill="#000000" stroke="none" font-family="Arial" font-size="13px" font-style="normal" font-weight="normal" text-decoration="none" x="221" y="458.5">+initializeVectorShip()</text></g></g><g transform="translate(-22,-38) scale(1,1)"><g><path fill="none" stroke="none"/><text fill="#000000" stroke="none" font-family="Arial" font-size="13px" font-style="normal" font-weight="normal" text-decoration="none" x="221" y="473.5">+makeStep(coord: Coordinates)</text></g></g><g transform="translate(-22,-38) scale(1,1)"><g><path fill="none" stroke="none"/><text fill="#000000" stroke="none" font-family="Arial" font-size="13px" font-style="normal" font-weight="normal" text-decoration="none" x="221" y="488.5">+drawStep(coord: Coordinates)</text></g></g><g transform="translate(-22,-38) scale(1,1)"><g><path fill="none" stroke="none"/><text fill="#000000" stroke="none" font-family="Arial" font-size="13px" font-style="normal" font-weight="normal" text-decoration="none" x="221" y="503.5">+canWin(): bool</text></g></g><g transform="translate(-22,-38) scale(1,1)"><g><path fill="none" stroke="none"/><text fill="#000000" stroke="none" font-family="Arial" font-size="13px" font-style="normal" font-weight="normal" text-decoration="none" x="221" y="518.5">+showStatistic()</text></g></g><g transform="translate(-22,-38) scale(1,1)"><rect fill="#C0C0C0" stroke="none" x="71" y="527" width="56" height="44" opacity="0.2"/></g><g transform="translate(-22,-38) scale(1,1)"><rect fill="#ffffff" stroke="none" x="64" y="520" width="56" height="44"/></g><g transform="translate(-22,-38) scale(1,1)"><path fill="none" stroke="#000000" d="M 64 520 L 120 520 L 120 564 L 64 564 L 64 520 Z Z" stroke-miterlimit="10"/></g><g transform="translate(-22,-38) scale(1,1)"><path fill="none" stroke="#000000" d="M 64 545 L 120 545" stroke-miterlimit="10"/></g><g transform="translate(-22,-38) scale(1,1)"><path fill="none" stroke="#000000" d="M 64 555 L 120 555" stroke-miterlimit="10"/></g><g transform="translate(-22,-38) scale(1,1)"><g><path fill="none" stroke="none"/><text fill="#000000" stroke="none" font-family="Arial" font-size="13px" font-style="normal" font-weight="bold" text-decoration="none" x="78.2763671875" y="539.5">User</text></g></g><g transform="translate(-22,-38) scale(1,1)"><rect fill="#C0C0C0" stroke="none" x="519" y="591" width="70.38818359375" height="44" opacity="0.2"/></g><g transform="translate(-22,-38) scale(1,1)"><rect fill="#ffffff" stroke="none" x="512" y="584" width="70.38818359375" height="44"/></g><g transform="translate(-22,-38) scale(1,1)"><path fill="none" stroke="#000000" d="M 512 584 L 582.38818359375 584 L 582.38818359375 628 L 512 628 L 512 584 Z Z" stroke-miterlimit="10"/></g><g transform="translate(-22,-38) scale(1,1)"><path fill="none" stroke="#000000" d="M 512 609 L 582.38818359375 609" stroke-miterlimit="10"/></g><g transform="translate(-22,-38) scale(1,1)"><path fill="none" stroke="#000000" d="M 512 619 L 582.38818359375 619" stroke-miterlimit="10"/></g><g transform="translate(-22,-38) scale(1,1)"><g><path fill="none" stroke="none"/><text fill="#000000" stroke="none" font-family="Arial" font-size="13px" font-style="normal" font-weight="bold" text-decoration="none" x="518.655029296875" y="603.5">Computer</text></g></g><g transform="translate(-22,-38) scale(1,1)"><path fill="none" stroke="#000000" d="M 121 528 L 215 483" stroke-miterlimit="10"/></g><g transform="translate(-22,-38) scale(1,1)"><path fill="#FFFFFF" stroke="none" d="M 200.30240569529298 499.37011672695843 L 215 483 L 193.03181085356525 484.1826519464605"/></g><g transform="translate(-22,-38) scale(1,1)"><path fill="none" stroke="#000000" d="M 200.30240569529298 499.37011672695843 L 215 483 L 193.03181085356525 484.1826519464605 L 200.30240569529298 499.37011672695843" stroke-miterlimit="10"/></g><g transform="translate(-22,-38) scale(1,1)"><path fill="none" stroke="#000000" d="M 525 583 L 482 539" stroke-miterlimit="10"/></g><g transform="translate(-22,-38) scale(1,1)"><path fill="#FFFFFF" stroke="none" d="M 502.22724304632976 547.652088692605 L 482 539 L 490.1848701367997 559.4207713087367"/></g><g transform="translate(-22,-38) scale(1,1)"><path fill="none" stroke="#000000" d="M 502.22724304632976 547.652088692605 L 482 539 L 490.1848701367997 559.4207713087367 L 502.22724304632976 547.652088692605" stroke-miterlimit="10"/></g><g transform="translate(-22,-38) scale(1,1)"><rect fill="#C0C0C0" stroke="none" x="543" y="711" width="89.57080078125" height="72" opacity="0.2"/></g><g transform="translate(-22,-38) scale(1,1)"><rect fill="#ffffff" stroke="none" x="536" y="704" width="89.57080078125" height="72"/></g><g transform="translate(-22,-38) scale(1,1)"><path fill="none" stroke="#000000" d="M 536 704 L 625.57080078125 704 L 625.57080078125 776 L 536 776 L 536 704 Z Z" stroke-miterlimit="10"/></g><g transform="translate(-22,-38) scale(1,1)"><path fill="none" stroke="#000000" d="M 536 729 L 625.57080078125 729" stroke-miterlimit="10"/></g><g transform="translate(-22,-38) scale(1,1)"><path fill="none" stroke="#000000" d="M 536 739 L 625.57080078125 739" stroke-miterlimit="10"/></g><g transform="translate(-22,-38) scale(1,1)"><g><path fill="none" stroke="none"/><text fill="#000000" stroke="none" font-family="Arial" font-size="13px" font-style="normal" font-weight="bold" text-decoration="none" x="564.1767578125" y="723.5">Timer</text></g></g><g transform="translate(-22,-38) scale(1,1)"><g><path fill="none" stroke="none"/><text fill="#000000" stroke="none" font-family="Arial" font-size="13px" font-style="normal" font-weight="normal" text-decoration="none" x="541" y="756.5">+set()</text></g></g><g transform="translate(-22,-38) scale(1,1)"><g><path fill="none" stroke="none"/><text fill="#000000" stroke="none" font-family="Arial" font-size="13px" font-style="normal" font-weight="normal" text-decoration="none" x="541" y="771.5">+kill()</text></g></g><g transform="translate(-22,-38) scale(1,1)"><rect fill="#C0C0C0" stroke="none" x="759" y="575" width="186.39794921875" height="72" opacity="0.2"/></g><g transform="translate(-22,-38) scale(1,1)"><rect fill="#ffffff" stroke="none" x="752" y="568" width="186.39794921875" height="72"/></g><g transform="translate(-22,-38) scale(1,1)"><path fill="none" stroke="#000000" d="M 752 568 L 938.39794921875 568 L 938.39794921875 640 L 752 640 L 752 568 Z Z" stroke-miterlimit="10"/></g><g transform="translate(-22,-38) scale(1,1)"><path fill="none" stroke="#000000" d="M 752 593 L 938.39794921875 593" stroke-miterlimit="10"/></g><g transform="translate(-22,-38) scale(1,1)"><path fill="none" stroke="#000000" d="M 752 603 L 938.39794921875 603" stroke-miterlimit="10"/></g><g transform="translate(-22,-38) scale(1,1)"><g><path fill="none" stroke="none"/><text fill="#000000" stroke="none" font-family="Arial" font-size="13px" font-style="italic" font-weight="bold" text-decoration="none" x="813.403564453125" y="587.5">StepResult</text></g></g><g transform="translate(-22,-38) scale(1,1)"><g><path fill="none" stroke="none"/><text fill="#000000" stroke="none" font-family="Arial" font-size="13px" font-style="italic" font-weight="normal" text-decoration="none" x="757" y="620.5">+draw(inputData: Coordinates)</text></g></g><g transform="translate(-22,-38) scale(1,1)"><g><path fill="none" stroke="none"/><text fill="#000000" stroke="none" font-family="Arial" font-size="13px" font-style="italic" font-weight="normal" text-decoration="none" x="757" y="635.5">+getStepRepeat(): bool</text></g></g><g transform="translate(-22,-38) scale(1,1)"><rect fill="#C0C0C0" stroke="none" x="903" y="687" width="50.919921875" height="44" opacity="0.2"/></g><g transform="translate(-22,-38) scale(1,1)"><rect fill="#ffffff" stroke="none" x="896" y="680" width="50.919921875" height="44"/></g><g transform="translate(-22,-38) scale(1,1)"><path fill="none" stroke="#000000" d="M 896 680 L 946.919921875 680 L 946.919921875 724 L 896 724 L 896 680 Z Z" stroke-miterlimit="10"/></g><g transform="translate(-22,-38) scale(1,1)"><path fill="none" stroke="#000000" d="M 896 705 L 946.919921875 705" stroke-miterlimit="10"/></g><g transform="translate(-22,-38) scale(1,1)"><path fill="none" stroke="#000000" d="M 896 715 L 946.919921875 715" stroke-miterlimit="10"/></g><g transform="translate(-22,-38) scale(1,1)"><g><path fill="none" stroke="none"/><text fill="#000000" stroke="none" font-family="Arial" font-size="13px" font-style="normal" font-weight="bold" text-decoration="none" x="904.114990234375" y="699.5">Boner</text></g></g><g transform="translate(-22,-38) scale(1,1)"><rect fill="#C0C0C0" stroke="none" x="799" y="703" width="74.919921875" height="44" opacity="0.2"/></g><g transform="translate(-22,-38) scale(1,1)"><rect fill="#ffffff" stroke="none" x="792" y="696" width="74.919921875" height="44"/></g><g transform="translate(-22,-38) scale(1,1)"><path fill="none" stroke="#000000" d="M 792 696 L 866.919921875 696 L 866.919921875 740 L 792 740 L 792 696 Z Z" stroke-miterlimit="10"/></g><g transform="translate(-22,-38) scale(1,1)"><path fill="none" stroke="#000000" d="M 792 721 L 866.919921875 721" stroke-miterlimit="10"/></g><g transform="translate(-22,-38) scale(1,1)"><path fill="none" stroke="#000000" d="M 792 731 L 866.919921875 731" stroke-miterlimit="10"/></g><g transform="translate(-22,-38) scale(1,1)"><g><path fill="none" stroke="none"/><text fill="#000000" stroke="none" font-family="Arial" font-size="13px" font-style="normal" font-weight="bold" text-decoration="none" x="813.200439453125" y="715.5">Injure</text></g></g><g transform="translate(-22,-38) scale(1,1)"><rect fill="#C0C0C0" stroke="none" x="711" y="687" width="50.919921875" height="44" opacity="0.2"/></g><g transform="translate(-22,-38) scale(1,1)"><rect fill="#ffffff" stroke="none" x="704" y="680" width="50.919921875" height="44"/></g><g transform="translate(-22,-38) scale(1,1)"><path fill="none" stroke="#000000" d="M 704 680 L 754.919921875 680 L 754.919921875 724 L 704 724 L 704 680 Z Z" stroke-miterlimit="10"/></g><g transform="translate(-22,-38) scale(1,1)"><path fill="none" stroke="#000000" d="M 704 705 L 754.919921875 705" stroke-miterlimit="10"/></g><g transform="translate(-22,-38) scale(1,1)"><path fill="none" stroke="#000000" d="M 704 715 L 754.919921875 715" stroke-miterlimit="10"/></g><g transform="translate(-22,-38) scale(1,1)"><g><path fill="none" stroke="none"/><text fill="#000000" stroke="none" font-family="Arial" font-size="13px" font-style="normal" font-weight="bold" text-decoration="none" x="720.792236328125" y="699.5">Kill</text></g></g><g transform="translate(-22,-38) scale(1,1)"><path fill="none" stroke="#000000" d="M 903 679 L 874 641" stroke-miterlimit="10"/></g><g transform="translate(-22,-38) scale(1,1)"><path fill="#FFFFFF" stroke="none" d="M 893.0235701494908 652.050057862627 L 874 641 L 879.6381246079155 662.2652663022502"/></g><g transform="translate(-22,-38) scale(1,1)"><path fill="none" stroke="#000000" d="M 893.0235701494908 652.050057862627 L 874 641 L 879.6381246079155 662.2652663022502 L 893.0235701494908 652.050057862627" stroke-miterlimit="10"/></g><g transform="translate(-22,-38) scale(1,1)"><path fill="none" stroke="#000000" d="M 832 695 L 840 641" stroke-miterlimit="10"/></g><g transform="translate(-22,-38) scale(1,1)"><path fill="#FFFFFF" stroke="none" d="M 845.3494862912376 662.3397046938298 L 840 641 L 828.6932081348731 659.8721079299239"/></g><g transform="translate(-22,-38) scale(1,1)"><path fill="none" stroke="#000000" d="M 845.3494862912376 662.3397046938298 L 840 641 L 828.6932081348731 659.8721079299239 L 845.3494862912376 662.3397046938298" stroke-miterlimit="10"/></g><g transform="translate(-22,-38) scale(1,1)"><path fill="none" stroke="#000000" d="M 756 679 L 801 641" stroke-miterlimit="10"/></g><g transform="translate(-22,-38) scale(1,1)"><path fill="#FFFFFF" stroke="none" d="M 790.9026249844612 660.5459207456588 L 801 641 L 780.0390245505388 647.681130758119"/></g><g transform="translate(-22,-38) scale(1,1)"><path fill="none" stroke="#000000" d="M 790.9026249844612 660.5459207456588 L 801 641 L 780.0390245505388 647.681130758119 L 790.9026249844612 660.5459207456588" stroke-miterlimit="10"/></g><g transform="translate(-22,-38) scale(1,1)"><path fill="none" stroke="#000000" d="M 584 238 L 505 300" stroke-miterlimit="10"/></g><g transform="translate(-22,-38) scale(1,1)"><path fill="#000000" stroke="none" d="M 510.3957288055359 290.4142756842735 L 505 300 L 515.593487094073 297.03722576160305 L 522.3066025785279 286.4176030396364"/></g><g transform="translate(-22,-38) scale(1,1)"><path fill="none" stroke="#000000" d="M 510.3957288055359 290.4142756842735 L 505 300 L 515.593487094073 297.03722576160305 L 522.3066025785279 286.4176030396364 L 510.3957288055359 290.4142756842735" stroke-miterlimit="10"/></g><g transform="translate(-22,-38) scale(1,1)"><path fill="none" stroke="#000000" d="M 751 567 L 505 470" stroke-miterlimit="10"/></g><g transform="translate(-22,-38) scale(1,1)"><path fill="#000000" stroke="none" d="M 515.9983902047168 469.81181683181103 L 505 470 L 512.9101018902226 477.64397070155934 L 525.4664043628527 478.07008627315736"/></g><g transform="translate(-22,-38) scale(1,1)"><path fill="none" stroke="#000000" d="M 515.9983902047168 469.81181683181103 L 505 470 L 512.9101018902226 477.64397070155934 L 525.4664043628527 478.07008627315736 L 515.9983902047168 469.81181683181103" stroke-miterlimit="10"/></g><g transform="translate(-22,-38) scale(1,1)"><rect fill="#C0C0C0" stroke="none" x="247" y="591" width="127.83447265625" height="102" opacity="0.2"/></g><g transform="translate(-22,-38) scale(1,1)"><rect fill="#ffffff" stroke="none" x="240" y="584" width="127.83447265625" height="102"/></g><g transform="translate(-22,-38) scale(1,1)"><path fill="none" stroke="#000000" d="M 240 584 L 367.83447265625 584 L 367.83447265625 686 L 240 686 L 240 584 Z Z" stroke-miterlimit="10"/></g><g transform="translate(-22,-38) scale(1,1)"><path fill="none" stroke="#000000" d="M 240 609 L 367.83447265625 609" stroke-miterlimit="10"/></g><g transform="translate(-22,-38) scale(1,1)"><path fill="none" stroke="#000000" d="M 240 619 L 367.83447265625 619" stroke-miterlimit="10"/></g><g transform="translate(-22,-38) scale(1,1)"><g><path fill="none" stroke="none"/><text fill="#000000" stroke="none" font-family="Arial" font-size="13px" font-style="normal" font-weight="bold" text-decoration="none" x="260.562744140625" y="603.5">ManagerGame</text></g></g><g transform="translate(-22,-38) scale(1,1)"><g><path fill="none" stroke="none"/><text fill="#000000" stroke="none" font-family="Arial" font-size="13px" font-style="normal" font-weight="normal" text-decoration="none" x="245" y="636.5">+pause()</text></g></g><g transform="translate(-22,-38) scale(1,1)"><g><path fill="none" stroke="none"/><text fill="#000000" stroke="none" font-family="Arial" font-size="13px" font-style="normal" font-weight="normal" text-decoration="none" x="245" y="651.5">+exit()</text></g></g><g transform="translate(-22,-38) scale(1,1)"><g><path fill="none" stroke="none"/><text fill="#000000" stroke="none" font-family="Arial" font-size="13px" font-style="normal" font-weight="normal" text-decoration="none" x="245" y="666.5">+reset()</text></g></g><g transform="translate(-22,-38) scale(1,1)"><g><path fill="none" stroke="none"/><text fill="#000000" stroke="none" font-family="Arial" font-size="13px" font-style="normal" font-weight="normal" text-decoration="none" x="245" y="681.5">+showWaitingTime()</text></g></g><g transform="translate(-22,-38) scale(1,1)"><path fill="none" stroke="#000000" d="M 121 555 L 239 607" stroke-miterlimit="10"/></g><g transform="translate(-22,-38) scale(1,1)"><path fill="#FFFFFF" stroke="none" d="M 217.00550713804745 606.5077767320428 L 239 607 L 223.7955993591846 591.0994905379239"/></g><g transform="translate(-22,-38) scale(1,1)"><path fill="none" stroke="#000000" d="M 217.00550713804745 606.5077767320428 L 239 607 L 223.7955993591846 591.0994905379239 L 217.00550713804745 606.5077767320428" stroke-miterlimit="10"/></g><g transform="translate(-22,-38) scale(1,1)"><rect fill="#C0C0C0" stroke="none" x="711" y="295" width="270.21240234375" height="57" opacity="0.2"/></g><g transform="translate(-22,-38) scale(1,1)"><rect fill="#ffffff" stroke="none" x="704" y="288" width="270.21240234375" height="57"/></g><g transform="translate(-22,-38) scale(1,1)"><path fill="none" stroke="#000000" d="M 704 288 L 974.21240234375 288 L 974.21240234375 345 L 704 345 L 704 288 Z Z" stroke-miterlimit="10"/></g><g transform="translate(-22,-38) scale(1,1)"><path fill="none" stroke="#000000" d="M 704 313 L 974.21240234375 313" stroke-miterlimit="10"/></g><g transform="translate(-22,-38) scale(1,1)"><path fill="none" stroke="#000000" d="M 704 323 L 974.21240234375 323" stroke-miterlimit="10"/></g><g transform="translate(-22,-38) scale(1,1)"><g><path fill="none" stroke="none"/><text fill="#000000" stroke="none" font-family="Arial" font-size="13px" font-style="normal" font-weight="bold" text-decoration="none" x="801.16943359375" y="307.5">ConsoleView</text></g></g><g transform="translate(-22,-38) scale(1,1)"><g><path fill="none" stroke="none"/><text fill="#000000" stroke="none" font-family="Arial" font-size="13px" font-style="normal" font-weight="normal" text-decoration="none" x="709" y="340.5">+print(coordinates: Coordinates, state: string)</text></g></g><g transform="translate(-22,-38) scale(1,1)"><path fill="none" stroke="#000000" d="M 792 287 L 712 238" stroke-miterlimit="10"/></g><g transform="translate(-22,-38) scale(1,1)"><path fill="#FFFFFF" stroke="none" d="M 722.8649478225753 239.71840298321322 L 712 238 L 718.4675838803398 246.89777268482226 L 730.7605971265559 249.4908657400155"/></g><g transform="translate(-22,-38) scale(1,1)"><path fill="none" stroke="#000000" d="M 722.8649478225753 239.71840298321322 L 712 238 L 718.4675838803398 246.89777268482226 L 730.7605971265559 249.4908657400155 L 722.8649478225753 239.71840298321322" stroke-miterlimit="10"/></g><g transform="translate(-22,-38) scale(1,1)"><path fill="none" stroke="#000000" d="M 840 346 L 844 567" stroke-miterlimit="10"/></g><g transform="translate(-22,-38) scale(1,1)"><path fill="#FFFFFF" stroke="none" d="M 839.6072618851294 556.9151672371743 L 844 567 L 848.0249187247248 556.762811457272 L 843.60187516099 545.0036026446928"/></g><g transform="translate(-22,-38) scale(1,1)"><path fill="none" stroke="#000000" d="M 839.6072618851294 556.9151672371743 L 844 567 L 848.0249187247248 556.762811457272 L 843.60187516099 545.0036026446928 L 839.6072618851294 556.9151672371743" stroke-miterlimit="10"/></g><g transform="translate(-22,-38) scale(1,1)"><path fill="none" stroke="#000000" d="M 505 422 L 615 429" stroke-miterlimit="10"/></g><g transform="translate(-22,-38) scale(1,1)"><path fill="none" stroke="#000000" d="M 604.5905025261112 432.55560998157887 L 615 429 L 605.12517781824 424.153569676698" stroke-miterlimit="10"/></g><g transform="translate(-22,-38) scale(1,1)"><path fill="none" stroke="#000000" d="M 811 567 L 749 499" stroke-miterlimit="10"/></g><g transform="translate(-22,-38) scale(1,1)"><path fill="none" stroke="#000000" d="M 758.9577891355946 503.6735891487203 L 749 499 L 752.7364936438646 509.3459468029446" stroke-miterlimit="10"/></g><g transform="translate(-22,-38) scale(1,1)"><path fill="none" stroke="#000000" d="M 800 346 L 762 376" stroke-miterlimit="10"/></g><g transform="translate(-22,-38) scale(1,1)"><path fill="none" stroke="#000000" d="M 767.3681047122818 366.3987786298837 L 762 376 L 772.5849119826563 373.0067345056915" stroke-miterlimit="10"/></g><g transform="translate(-22,-38) scale(1,1)"><path fill="none" stroke="#000000" d="M 650 238 L 675 367" stroke-miterlimit="10"/></g><g transform="translate(-22,-38) scale(1,1)"><path fill="none" stroke="#000000" d="M 668.9338376053668 357.8238529980205 L 675 367 L 677.1990912052403 356.2220596647117" stroke-miterlimit="10"/></g><g transform="translate(-22,-38) scale(1,1)"><rect fill="#C0C0C0" stroke="none" x="39" y="55" width="362.716796875" height="190" opacity="0.2"/></g><g transform="translate(-22,-38) scale(1,1)"><rect fill="#ffffff" stroke="none" x="32" y="48" width="362.716796875" height="190"/></g><g transform="translate(-22,-38) scale(1,1)"><path fill="none" stroke="#000000" d="M 32 48 L 394.716796875 48 L 394.716796875 238 L 32 238 L 32 48 Z Z" stroke-miterlimit="10"/></g><g transform="translate(-22,-38) scale(1,1)"><path fill="none" stroke="#000000" d="M 32 73 L 394.716796875 73" stroke-miterlimit="10"/></g><g transform="translate(-22,-38) scale(1,1)"><path fill="none" stroke="#000000" d="M 32 126 L 394.716796875 126" stroke-miterlimit="10"/></g><g transform="translate(-22,-38) scale(1,1)"><g><path fill="none" stroke="none"/><text fill="#000000" stroke="none" font-family="Arial" font-size="13px" font-style="normal" font-weight="bold" text-decoration="none" x="149.047119140625" y="67.5">GenerateFieldOfShips</text></g></g><g transform="translate(-22,-38) scale(1,1)"><g><path fill="none" stroke="none"/><text fill="#000000" stroke="none" font-family="Arial" font-size="13px" font-style="normal" font-weight="normal" text-decoration="none" x="37" y="90.5">-nTypeShip</text></g></g><g transform="translate(-22,-38) scale(1,1)"><g><path fill="none" stroke="none"/><text fill="#000000" stroke="none" font-family="Arial" font-size="13px" font-style="normal" font-weight="normal" text-decoration="none" x="37" y="105.5">-field_: std::list&lt;Coordinates&gt;</text></g></g><g transform="translate(-22,-38) scale(1,1)"><g><path fill="none" stroke="none"/><text fill="#000000" stroke="none" font-family="Arial" font-size="13px" font-style="normal" font-weight="normal" text-decoration="none" x="37" y="120.5">-nTypesShip: map&lt;int,int&gt;</text></g></g><g transform="translate(-22,-38) scale(1,1)"><g><path fill="none" stroke="none"/><text fill="#000000" stroke="none" font-family="Arial" font-size="13px" font-style="normal" font-weight="normal" text-decoration="none" x="37" y="143.5">-getRandCoordinates(): Coordinates</text></g></g><g transform="translate(-22,-38) scale(1,1)"><g><path fill="none" stroke="none"/><text fill="#000000" stroke="none" font-family="Arial" font-size="13px" font-style="normal" font-weight="normal" text-decoration="none" x="37" y="158.5">-checkCoordOnField(begin: Coordinates, return: bool)</text></g></g><g transform="translate(-22,-38) scale(1,1)"><g><path fill="none" stroke="none"/><text fill="#000000" stroke="none" font-family="Arial" font-size="13px" font-style="normal" font-weight="normal" text-decoration="none" x="37" y="173.5">-IsValidCoordinate(begin: Coordinates, return: bool)</text></g></g><g transform="translate(-22,-38) scale(1,1)"><g><path fill="none" stroke="none"/><text fill="#000000" stroke="none" font-family="Arial" font-size="13px" font-style="normal" font-weight="normal" text-decoration="none" x="37" y="188.5">-addShip(body: std::list&lt;Coordinates&gt;)</text></g></g><g transform="translate(-22,-38) scale(1,1)"><g><path fill="none" stroke="none"/><text fill="#000000" stroke="none" font-family="Arial" font-size="13px" font-style="normal" font-weight="normal" text-decoration="none" x="37" y="203.5">-addEnviroment(ship: std::list&lt;Coordinates&gt;)</text></g></g><g transform="translate(-22,-38) scale(1,1)"><g><path fill="none" stroke="none"/><text fill="#000000" stroke="none" font-family="Arial" font-size="13px" font-style="normal" font-weight="normal" text-decoration="none" x="37" y="218.5">+GenerateFieldOfShips(nShips: int, nTypeShip: map&lt;int,int&gt;)</text></g></g><g transform="translate(-22,-38) scale(1,1)"><g><path fill="none" stroke="none"/><text fill="#000000" stroke="none" font-family="Arial" font-size="13px" font-style="normal" font-weight="normal" text-decoration="none" x="37" y="233.5">+createField(Parameter1: std::vector&lt;Ship&gt;)</text></g></g><g transform="translate(-22,-38) scale(1,1)"><path fill="none" stroke="#000000" d="M 265 239 L 291 287" stroke-miterlimit="10"/></g><g transform="translate(-22,-38) scale(1,1)"><path fill="#000000" stroke="none" d="M 282.45829407535604 280.0689640098393 L 291 287 L 289.8610843670736 276.05911926849234 L 280.52177073210345 267.65557673619094"/></g><g transform="translate(-22,-38) scale(1,1)"><path fill="none" stroke="#000000" d="M 282.45829407535604 280.0689640098393 L 291 287 L 289.8610843670736 276.05911926849234 L 280.52177073210345 267.65557673619094 L 282.45829407535604 280.0689640098393" stroke-miterlimit="10"/></g></g></svg>